<?xml version="1.0" standalone="no"?>
<!DOCTYPE svg PUBLIC "-//W3C//DTD SVG 20010904//EN"
 "http://www.w3.org/TR/2001/REC-SVG-20010904/DTD/svg10.dtd">
<svg version="1.0" xmlns="http://www.w3.org/2000/svg"
 width="909.000000pt" height="909.000000pt" viewBox="0 0 909.000000 909.000000"
 preserveAspectRatio="xMidYMid meet">
<metadata>
Created by potrace 1.11, written by Peter Selinger 2001-2013
</metadata>
<g transform="translate(0.000000,909.000000) scale(0.100000,-0.100000)"
fill="#000000" stroke="none">
<path d="M1328 9068 c-32 -11 -58 -24 -58 -29 0 -6 -4 -8 -9 -5 -23 14 -163
-159 -144 -178 4 -3 2 -6 -4 -6 -5 0 -11 -6 -12 -12 -7 -44 -5 -8528 2 -8553
12 -41 40 -98 52 -107 6 -4 6 -8 1 -8 -5 0 9 -17 31 -38 62 -58 82 -72 98 -72
8 0 15 -5 15 -10 0 -6 3 -9 8 -8 4 1 27 -4 52 -11 42 -12 120 -11 180 3 36 8
124 55 165 89 6 4 71 48 145 97 74 49 140 93 147 99 7 6 17 11 23 11 5 0 10 5
10 10 0 6 3 9 8 8 4 -2 14 3 22 10 31 25 120 82 120 76 0 -4 9 3 20 16 11 13
20 19 20 14 0 -5 5 -1 11 9 5 9 15 17 21 17 6 0 26 11 44 25 18 14 37 25 42
25 6 0 12 3 14 8 4 10 188 132 199 132 5 0 9 5 9 11 0 5 4 8 9 5 5 -4 11 -2
13 3 3 10 106 81 117 81 5 0 16 9 26 20 10 11 24 20 32 20 7 0 16 7 19 15 4 8
9 13 14 10 4 -2 16 4 28 15 11 10 44 34 74 52 29 18 59 38 66 45 7 7 17 13 21
13 4 0 21 11 37 25 15 13 30 22 32 20 3 -2 10 1 18 8 32 28 44 37 51 37 5 0
22 12 38 28 16 15 30 25 30 23 0 -8 75 42 75 51 0 5 4 6 10 3 5 -3 17 3 27 15
10 11 21 20 24 20 4 0 112 70 239 155 128 85 234 155 237 155 2 0 11 6 18 13
34 30 43 35 49 30 3 -4 6 -1 6 5 0 7 6 12 14 12 8 0 16 3 18 8 5 11 66 52 78
52 5 0 10 5 10 10 0 6 7 10 15 10 8 0 15 3 15 8 0 4 8 12 19 17 38 20 136 88
139 96 2 5 7 7 12 4 4 -2 15 4 25 15 10 11 24 20 32 20 7 0 13 5 13 10 0 6 7
10 15 10 8 0 15 5 15 10 0 6 6 10 13 10 7 0 23 9 35 20 12 11 26 20 31 20 6 0
14 6 18 12 4 7 24 22 43 32 19 11 40 24 45 28 6 5 33 23 60 41 28 17 55 36 61
42 6 5 27 19 47 30 20 11 37 23 37 27 0 5 4 8 9 8 8 0 201 127 228 150 7 5 16
10 21 10 5 0 15 7 22 15 7 8 16 12 21 9 5 -3 9 -1 9 4 0 11 104 82 120 82 5 0
10 3 10 8 0 9 62 46 73 44 4 -1 7 2 7 7 0 4 41 34 90 66 50 31 97 63 105 72 8
8 15 12 15 9 0 -3 37 21 83 52 45 32 90 61 100 65 9 3 17 11 17 17 0 5 9 10
19 10 11 0 21 4 23 8 2 5 26 23 53 42 28 18 53 38 56 43 3 5 10 9 15 9 12 1
57 30 66 43 4 5 8 6 8 2 0 -5 7 -2 15 5 27 24 40 34 95 67 30 19 57 36 60 40
8 10 114 77 133 84 9 3 17 11 17 17 0 5 4 10 10 10 5 0 60 34 121 75 61 41
115 75 120 75 5 0 9 5 9 10 0 6 6 10 14 10 8 0 16 4 18 8 2 5 32 27 68 50 36
23 70 45 75 49 6 5 31 22 57 38 27 17 48 33 48 38 0 4 5 7 10 7 8 0 355 225
370 240 14 14 181 120 189 120 5 0 11 7 15 15 3 8 12 15 21 15 8 0 15 5 15 10
0 6 7 10 15 10 8 0 15 5 15 10 0 6 5 10 10 10 6 0 39 20 74 45 36 25 69 45 75
45 5 0 11 3 13 8 4 11 126 92 137 92 5 0 11 3 13 8 2 4 28 23 58 43 63 41 83
55 160 105 67 45 132 111 149 152 8 18 17 32 22 32 5 0 6 7 3 15 -3 8 -2 20 2
27 13 20 15 37 14 103 -1 80 -2 85 -12 85 -5 0 -7 4 -3 9 3 5 1 12 -5 16 -6 4
-8 11 -5 16 4 5 1 9 -5 9 -6 0 -9 4 -6 9 3 5 -1 14 -9 21 -8 7 -15 17 -15 22
0 18 -66 76 -148 132 -46 31 -87 56 -92 56 -4 0 -14 7 -21 16 -7 9 -22 20 -34
25 -11 5 -40 25 -65 43 -25 19 -49 35 -53 35 -10 1 -81 53 -85 64 -2 4 -7 5
-12 2 -4 -2 -15 4 -25 15 -10 11 -24 20 -32 20 -7 0 -13 5 -13 10 0 6 -6 10
-12 10 -7 0 -25 10 -40 23 -14 13 -43 32 -62 42 -20 11 -36 23 -36 27 0 5 -6
8 -13 8 -8 0 -22 9 -32 20 -10 11 -24 20 -32 20 -7 0 -13 5 -13 10 0 6 -7 10
-15 10 -8 0 -15 5 -15 10 0 6 -7 10 -15 10 -8 0 -15 5 -15 10 0 6 -6 10 -13
10 -7 0 -28 13 -47 30 -19 16 -41 29 -47 30 -7 0 -13 3 -13 8 0 4 -20 18 -45
31 -25 13 -45 28 -45 32 0 5 -6 9 -13 9 -8 0 -22 9 -32 20 -10 11 -22 20 -26
20 -12 0 -173 111 -177 121 -2 5 -7 7 -12 4 -5 -3 -14 1 -22 8 -7 7 -76 54
-153 104 -77 51 -147 98 -154 105 -8 7 -30 20 -48 29 -18 8 -30 18 -26 22 3 4
1 7 -6 7 -6 0 -58 31 -114 69 -56 37 -106 68 -111 69 -5 0 -12 4 -15 9 -3 6
-49 38 -101 73 -52 35 -97 67 -98 72 -2 4 -8 6 -13 2 -5 -3 -9 0 -9 5 0 6 -5
11 -11 11 -6 0 -25 11 -43 25 -18 14 -38 25 -44 25 -6 0 -12 3 -14 8 -5 12
-78 64 -78 55 0 -4 -4 -3 -8 3 -4 6 -27 24 -52 39 -25 15 -48 33 -52 39 -5 6
-8 7 -8 1 0 -6 -3 -6 -8 1 -9 13 -221 154 -232 154 -5 0 -10 4 -12 8 -4 10
-248 172 -259 172 -5 0 -9 5 -9 10 0 6 -5 10 -10 10 -6 0 -20 9 -32 20 -12 11
-28 20 -35 20 -7 0 -13 5 -13 10 0 6 -7 10 -15 10 -7 0 -19 8 -24 18 -6 9 -11
13 -11 7 0 -7 -3 -7 -8 0 -10 14 -70 55 -80 55 -5 0 -17 9 -27 20 -10 11 -22
17 -26 14 -5 -3 -9 -1 -9 4 0 6 -21 23 -47 38 -27 15 -50 30 -53 33 -8 10 -63
45 -92 60 -16 8 -28 18 -28 23 0 4 -6 8 -14 8 -7 0 -20 7 -27 16 -7 9 -20 19
-29 23 -16 6 -191 121 -200 131 -3 3 -17 11 -32 19 -16 8 -28 18 -28 23 0 5
-5 6 -10 3 -6 -3 -13 1 -16 9 -3 9 -10 16 -14 16 -11 0 -164 102 -168 112 -2
4 -8 8 -14 8 -11 0 -101 61 -106 73 -2 4 -8 5 -13 1 -5 -3 -12 2 -15 10 -3 9
-11 16 -17 16 -5 0 -25 11 -43 25 -18 14 -37 25 -42 25 -6 0 -12 3 -14 8 -1 4
-27 23 -56 41 -30 19 -59 39 -66 45 -15 14 -41 31 -88 56 -21 11 -38 25 -38
30 0 6 -5 10 -10 10 -12 0 -372 239 -381 252 -3 6 -10 10 -15 11 -9 1 -106 61
-149 92 -75 53 -578 385 -585 385 -5 0 -10 3 -12 8 -5 10 -66 52 -77 52 -5 0
-11 3 -13 8 -4 10 -65 52 -76 52 -5 0 -17 9 -27 20 -10 11 -24 20 -32 20 -7 0
-13 5 -13 10 0 6 -7 10 -15 10 -8 0 -15 5 -15 10 0 6 -7 10 -15 10 -8 0 -15 5
-15 10 0 6 -6 10 -14 10 -8 0 -16 3 -18 8 -4 10 -65 52 -76 52 -5 0 -17 9 -27
20 -10 11 -24 20 -32 20 -7 0 -13 5 -13 10 0 6 -5 10 -10 10 -10 0 -67 37 -80
51 -8 8 -103 65 -125 73 -63 26 -177 27 -247 4z m1285 -2199 c12 -7 390 -258
842 -558 451 -300 827 -549 835 -552 9 -4 22 -14 29 -23 7 -9 17 -16 21 -16 4
0 99 -61 209 -135 111 -74 206 -135 210 -135 5 0 11 -3 13 -8 4 -10 247 -172
258 -172 4 0 10 -3 12 -7 2 -5 192 -134 423 -287 231 -154 430 -290 443 -304
65 -69 56 -194 -19 -264 -10 -10 -21 -18 -23 -18 -3 0 -14 -6 -23 -14 -37 -30
-504 -336 -512 -336 -5 0 -11 -4 -13 -9 -1 -5 -70 -53 -153 -107 -82 -54 -151
-102 -153 -106 -2 -5 -7 -8 -12 -8 -11 0 -314 -201 -318 -212 -2 -4 -8 -8 -12
-8 -5 0 -143 -89 -307 -198 -626 -417 -1019 -677 -1035 -687 -21 -12 -289
-191 -303 -202 -30 -24 -396 -263 -423 -277 -77 -40 -181 -6 -235 76 -16 26
-17 150 -17 2250 0 2071 1 2225 17 2248 20 28 43 51 69 67 25 15 149 16 177 2z"/>
</g>
</svg>
